<?xml version="1.0" standalone="no"?><!DOCTYPE svg PUBLIC "-//W3C//DTD SVG 1.1//EN" "http://www.w3.org/Graphics/SVG/1.1/DTD/svg11.dtd"><svg viewBox="0 0 1024 1024" version="1.1" xmlns="http://www.w3.org/2000/svg" xmlns:xlink="http://www.w3.org/1999/xlink"><path d="M340.956416 182.429913c9.883091 7.53665 23.986297 5.64251 31.524994-4.232394 33.528628-43.924395 84.381829-69.117171 139.514497-69.117171 39.3451 0 76.467579 12.887518 106.711394 36.196387-9.254781 2.784416-15.996322 11.365862-15.996322 21.523199 0 12.423961 10.069333 22.488177 22.490224 22.488177l49.477878 0c12.421914 0 22.488177-10.06524 22.488177-22.488177L697.167257 117.329219c0-12.421914-10.067286-22.488177-22.488177-22.488177-11.470239 0-20.909216 8.586562-22.296819 19.677155-39.063691-32.448016-88.192621-50.41318-140.387377-50.41318-69.276806 0-133.161812 31.640628-175.270862 86.800925C329.189418 160.78187 331.085604 174.893262 340.956416 182.429913zM648.654356 355.418802c0 50.681286 41.237193 91.914386 91.922572 91.914386 50.687426 0 91.922572-41.237193 91.922572-91.914386 0-50.679239-41.237193-91.916433-91.922572-91.916433C689.890526 263.500323 648.654356 304.735469 648.654356 355.418802zM863.927281 491.874637l-0.153496-0.052189-48.622394-8.04728c-4.140297-1.27197-8.562003 0.918929-10.048867 4.997827l-55.166437 151.352103c-3.182482 8.729825-15.531741 8.729825-18.714224 0l-55.166437-151.352103c-1.201361-3.298116-4.313236-5.363148-7.645121-5.363148-0.792039 0-51.021024 8.404414-51.021024 8.404414-33.514301 11.165294-55.908334 42.228777-55.908334 77.360925l0 125.936247c0 18.869766 15.303544 34.169217 34.17638 34.169217l289.818735 0c18.87386 0 34.175357-15.299451 34.175357-34.169217L919.65142 568.753585C919.650397 533.779026 897.167337 502.760568 863.927281 491.874637zM283.449677 447.333188c50.689473 0 91.922572-41.237193 91.922572-91.914386 0-50.679239-41.237193-91.916433-91.922572-91.916433-50.683333 0-91.922572 41.2331-91.922572 91.916433C191.527105 406.097018 232.761228 447.333188 283.449677 447.333188zM462.521099 695.110411 462.521099 568.753585c0-34.974559-22.479991-65.993017-55.722092-76.879971l-0.153496-0.052189-48.622394-8.04728c-4.140297-1.27197-8.562003 0.918929-10.048867 4.997827l-55.166437 151.352103c-3.182482 8.729825-15.531741 8.729825-18.714224 0l-55.17053-151.352103c-1.199315-3.298116-4.313236-5.363148-7.647167-5.363148-0.789992 0-51.021024 8.404414-51.021024 8.404414-33.516348 11.165294-55.906288 42.228777-55.906288 77.360925l0 125.936247c0 18.869766 15.301498 34.169217 34.175357 34.169217l289.818735 0C447.217554 729.278605 462.521099 713.983247 462.521099 695.110411zM688.325891 841.567018c-9.881045-7.538697-23.986297-5.640464-31.522947 4.232394-33.528628 43.926442-84.381829 69.117171-139.516544 69.117171-39.343053 0-76.465532-12.886495-106.709347-36.196387 9.254781-2.78237 15.996322-11.363815 15.996322-21.525246 0-12.419867-10.069333-22.48613-22.490224-22.48613l-49.477878 0c-12.421914 0-22.490224 10.067286-22.490224 22.48613l0 49.475831c0 12.419867 10.069333 22.488177 22.490224 22.488177 11.470239 0 20.909216-8.588609 22.296819-19.677155 39.067784 32.44597 88.190575 50.411133 140.385331 50.411133 69.278853 0 133.163859-31.638581 175.272909-86.807065C700.092889 863.21813 698.198749 849.103668 688.325891 841.567018zM761.89956 487.101937c-2.255367-2.455935-5.551436-3.693112-8.885368-3.693112l-24.871457 0c-3.331885 0-6.630001 1.238201-8.885368 3.693112-3.491521 3.802606-3.998057 9.295714-1.520633 13.586436l13.293771 20.038382-6.223748 52.497655 12.256138 32.595372c1.193175 3.279696 5.829775 3.279696 7.02602 0l12.254092-32.595372-6.221702-52.497655 13.293771-20.038382C765.896594 496.39765 765.389034 490.904543 761.89956 487.101937zM304.753889 487.101937c-2.25332-2.455935-5.54939-3.693112-8.885368-3.693112l-24.871457 0c-3.331885 0-6.630001 1.238201-8.885368 3.693112-3.489474 3.802606-3.996011 9.295714-1.520633 13.586436l13.293771 20.038382-6.219655 52.499701 12.254092 32.597419c1.195222 3.27765 5.831822 3.27765 7.030114 0l12.256138-32.597419-6.223748-52.495608 13.293771-20.040429C308.750923 496.39765 308.244386 490.904543 304.753889 487.101937z"></path></svg>