<?xml version="1.0" encoding="UTF-8" standalone="no"?>
<svg
   xmlns:svg="http://www.w3.org/2000/svg"
   xmlns="http://www.w3.org/2000/svg"
   viewBox="0 0 1024 1024"
   version="1.1">
  <path d="M 147.71426,1022 V 876.2828 h 145.7143 V 1022 h -145.7143 m 291.42858,0 V 876.2828 H 584.85715 V 1022 H 439.14284 m 291.4286,0 V 876.2828 h 145.7143 V 1022 H 730.57144 M 147.71426,730.5758 V 584.8586 h 145.7143 v 145.7172 h -145.7143 m 291.42858,0 V 584.8586 H 584.85715 V 730.5758 H 439.14284 m 291.4286,0 V 584.8586 h 145.7143 V 730.5758 H 730.57144 M 147.71426,439.1414 V 293.4242 h 145.7143 v 145.7172 h -145.7143 m 291.42858,0 V 293.4242 H 584.85715 V 439.1414 H 439.14284 m 291.4286,0 V 293.4242 h 145.7143 V 439.1414 H 730.57144 M 147.71426,147.7172 V 2 h 145.7143 v 145.7172 h -145.7143 m 291.42858,0 V 2 H 584.85715 V 147.7172 H 439.14284 m 291.4286,0 V 2 h 145.7143 v 145.7172 z"/>
</svg>
