<?xml version="1.0" standalone="no"?><!DOCTYPE svg PUBLIC "-//W3C//DTD SVG 1.1//EN" "http://www.w3.org/Graphics/SVG/1.1/DTD/svg11.dtd"><svg t="1533785323597" class="icon" style="" viewBox="0 0 1024 1024" version="1.1" xmlns="http://www.w3.org/2000/svg" p-id="1069" xmlns:xlink="http://www.w3.org/1999/xlink" width="36" height="36"><defs><style type="text/css"></style></defs><path d="M720 660.010667q34.005333-45.994667 43.989333-105.984l86.016 0q-11.989333 91.989333-68.010667 166.016zM553.984 763.989333q59.989333-9.984 105.984-43.989333l61.994667 61.994667q-72.021333 56.021333-168.021333 68.010667l0-86.016zM850.005333 470.016l-86.016 0q-9.984-59.989333-43.989333-105.984l61.994667-59.989333q56.021333 73.984 68.010667 166.016zM664.021333 235.989333l-194.005333 189.994667 0-166.016q-91.989333 16-153.002667 86.997333t-61.013333 164.992 61.013333 164.992 153.002667 86.997333l0 86.016q-125.994667-16-212.992-112t-86.997333-226.005333 86.997333-226.005333 212.992-112l0-132.010667z" p-id="1070"></path></svg>