<?xml version="1.0" standalone="no"?><!DOCTYPE svg PUBLIC "-//W3C//DTD SVG 1.1//EN" "http://www.w3.org/Graphics/SVG/1.1/DTD/svg11.dtd"><svg t="1533785350744" class="icon" style="" viewBox="0 0 1024 1024" version="1.1" xmlns="http://www.w3.org/2000/svg" p-id="1199" xmlns:xlink="http://www.w3.org/1999/xlink" width="36" height="36"><defs><style type="text/css"></style></defs><path d="M554.666667 173.653333 554.666667 42.666667 360.533333 236.8 554.666667 426.666667 554.666667 259.84C675.84 280.32 768 385.28 768 512 768 638.72 675.84 743.68 554.666667 764.16L554.666667 850.346667C723.2 829.44 853.333333 686.08 853.333333 512 853.333333 337.92 723.2 194.56 554.666667 173.653333M302.933333 781.653333C352.426667 820.053333 410.026667 843.093333 469.333333 850.346667L469.333333 763.733333C432.213333 757.333333 396.373333 742.826667 364.373333 719.786667L302.933333 781.653333M259.84 554.666667 173.653333 554.666667C180.906667 613.973333 204.373333 671.146667 242.773333 720.64L302.933333 660.053333C280.746667 628.053333 265.813333 592.213333 259.84 554.666667M303.36 363.946667 243.2 303.36C204.8 352.853333 180.906667 410.026667 173.653333 469.333333L259.84 469.333333C265.813333 432.213333 280.746667 395.946667 303.36 363.946667Z" p-id="1200"></path></svg>