<?xml version="1.0" standalone="no"?><!DOCTYPE svg PUBLIC "-//W3C//DTD SVG 1.1//EN" "http://www.w3.org/Graphics/SVG/1.1/DTD/svg11.dtd"><svg t="1533790566751" class="icon" style="" viewBox="0 0 1024 1024" version="1.1" xmlns="http://www.w3.org/2000/svg" p-id="1894" xmlns:xlink="http://www.w3.org/1999/xlink" width="32" height="32"><defs><style type="text/css"></style></defs><path d="M810.666667 836.736 213.333333 836.736C189.76 836.736 170.666667 817.536 170.666667 793.856L170.666667 579.477333 256 579.477333 256 750.976 768 750.976 768 579.477333 853.333333 579.477333 853.333333 793.856C853.333333 817.536 834.24 836.736 810.666667 836.736ZM652.672 355.456 544.362667 355.456 544.362667 613.525333 458.304 613.525333 458.304 355.456 350.016 355.456C342.336 355.456 338.496 346.197333 343.936 340.778667L495.253333 189.504C498.624 186.154667 504.064 186.154667 507.413333 189.504L658.752 340.778667C664.170667 346.197333 660.330667 355.456 652.672 355.456Z" p-id="1895"></path></svg>