<?xml version="1.0" standalone="no"?><!DOCTYPE svg PUBLIC "-//W3C//DTD SVG 1.1//EN" "http://www.w3.org/Graphics/SVG/1.1/DTD/svg11.dtd"><svg viewBox="0 0 1024 1024" version="1.1" xmlns="http://www.w3.org/2000/svg" xmlns:xlink="http://www.w3.org/1999/xlink"><path d="M597.333333 469.333333h341.333334v85.333334h-341.333334z m85.333334 170.666667h256v85.333333h-256z m-85.333334-341.333333h341.333334v85.333333h-341.333334zM170.666667 768c0-105.258667 65.365333-170.666667 170.666666-170.666667s170.666667 65.408 170.666667 170.666667v42.666667h85.333333v-42.666667c0-104.96-49.109333-185.301333-128.853333-226.090667A170.197333 170.197333 0 0 0 512 426.666667c0-97.28-73.386667-170.666667-170.666667-170.666667s-170.666667 73.386667-170.666666 170.666667c0 45.44 16.512 85.290667 43.52 115.242666C134.442667 582.698667 85.333333 663.04 85.333333 768v42.666667h85.333334v-42.666667z m85.333333-341.333333c0-50.261333 35.072-85.333333 85.333333-85.333334s85.333333 35.072 85.333334 85.333334-35.072 85.333333-85.333334 85.333333-85.333333-35.072-85.333333-85.333333z"></path></svg>